<?xml version="1.0" standalone="no"?>
<!DOCTYPE svg PUBLIC "-//W3C//DTD SVG 20010904//EN"
 "http://www.w3.org/TR/2001/REC-SVG-20010904/DTD/svg10.dtd">
<svg version="1.0" xmlns="http://www.w3.org/2000/svg"
 width="800.000000pt" height="800.000000pt" viewBox="0 0 800.000000 800.000000"
 preserveAspectRatio="xMidYMid meet">
<metadata>
Created by potrace 1.11, written by Peter Selinger 2001-2013
</metadata>
<g transform="translate(0.000000,800.000000) scale(0.100000,-0.100000)"
fill="#000000" stroke="none">
<path d="M3277 7754 c-1 -1 -33 -4 -72 -8 -83 -7 -131 -14 -165 -22 -14 -3
-43 -9 -65 -14 -59 -12 -226 -67 -282 -92 -26 -12 -51 -22 -55 -23 -3 0 -10
-4 -14 -8 -5 -4 -28 -17 -52 -27 -46 -21 -234 -141 -259 -166 -8 -8 -18 -14
-23 -14 -16 0 -246 -235 -298 -305 -28 -38 -55 -74 -59 -80 -16 -20 -63 -95
-63 -99 0 -2 -17 -35 -38 -73 -21 -37 -51 -99 -66 -138 -16 -38 -32 -77 -36
-86 -12 -24 -69 -230 -75 -274 -4 -22 -9 -53 -11 -70 -19 -112 -24 -374 -9
-460 2 -16 7 -46 9 -65 38 -295 194 -643 391 -876 57 -66 171 -180 225 -224
23 -19 49 -41 56 -47 7 -7 17 -13 22 -13 5 0 15 -6 21 -14 23 -28 152 -98 184
-101 65 -5 116 47 113 117 -2 46 -16 61 -97 114 -193 123 -361 291 -471 469
-14 22 -33 54 -44 70 -10 17 -19 32 -19 35 -1 3 -18 41 -39 84 -36 78 -89 226
-100 283 -35 176 -40 219 -39 373 1 229 41 417 130 620 26 58 50 107 53 110 4
3 9 13 13 22 6 17 96 159 107 168 3 3 21 25 40 50 43 55 158 171 226 227 147
121 363 232 554 284 25 7 50 14 55 15 6 2 24 5 40 9 17 3 39 7 50 9 117 25
371 26 495 2 14 -3 39 -7 55 -10 68 -12 94 -19 180 -47 210 -69 427 -202 593
-362 70 -68 184 -209 231 -287 67 -110 175 -366 186 -444 2 -11 6 -32 10 -46
21 -84 29 -166 29 -320 1 -155 -8 -256 -29 -330 -2 -8 -7 -29 -10 -47 -16 -94
-87 -272 -161 -403 -23 -41 -44 -86 -45 -100 -9 -71 70 -139 136 -117 52 17
71 43 151 207 81 167 119 279 154 453 15 75 30 238 31 332 2 174 -38 404 -101
582 -27 78 -108 263 -120 273 -3 3 -14 22 -25 43 -49 94 -206 293 -284 361
-13 12 -31 29 -40 39 -23 27 -189 157 -200 157 -5 0 -11 4 -13 8 -4 11 -108
73 -203 120 -105 53 -228 97 -349 127 -76 18 -83 20 -141 29 -91 14 -146 18
-253 20 -62 1 -114 1 -115 0z"/>
<path d="M3368 7095 c-1 -1 -39 -6 -83 -9 -111 -9 -128 -12 -230 -41 -84 -24
-280 -112 -308 -138 -6 -7 -32 -25 -56 -42 -58 -40 -176 -156 -232 -230 -84
-110 -165 -268 -188 -365 -5 -19 -16 -61 -24 -92 -35 -130 -41 -348 -12 -478
3 -14 7 -36 9 -50 14 -91 120 -338 166 -384 13 -14 35 -21 67 -22 58 -3 96 25
111 80 9 33 7 44 -27 110 -39 75 -88 195 -94 231 -2 11 -7 31 -10 45 -29 119
-25 315 9 440 8 30 16 62 19 70 2 8 8 29 15 45 6 17 11 31 11 32 0 2 15 30 34
64 19 33 35 63 35 66 0 12 101 134 155 186 88 85 171 138 315 200 47 21 169
49 181 41 5 -3 9 -1 9 4 0 12 223 14 276 2 21 -5 50 -11 64 -14 213 -40 449
-209 577 -411 54 -86 114 -232 127 -310 3 -16 10 -52 15 -79 12 -63 7 -256 -8
-321 -15 -67 -49 -170 -73 -223 -30 -68 -12 -127 46 -155 64 -30 120 -4 158
73 29 61 83 240 93 310 19 131 10 341 -19 458 -3 12 -8 30 -10 40 -21 91 -90
243 -155 342 -107 163 -263 304 -432 389 -35 18 -75 39 -89 46 -66 34 -225 71
-345 81 -38 3 -75 7 -82 9 -6 2 -13 2 -15 0z"/>
<path d="M3358 6405 c-3 -3 -27 -8 -54 -11 -26 -3 -52 -8 -56 -10 -5 -3 -20
-8 -35 -10 -42 -8 -142 -65 -194 -112 -26 -23 -63 -66 -82 -95 -32 -49 -83
-167 -72 -167 3 0 0 -10 -6 -22 -9 -17 -13 -304 -14 -1183 -1 -638 -5 -1168
-9 -1177 -12 -27 -55 -50 -92 -50 -29 0 -43 10 -96 67 -142 152 -207 213 -299
279 -35 25 -69 49 -74 53 -24 18 -123 61 -169 75 -64 19 -177 16 -271 -8 -202
-50 -316 -249 -281 -491 15 -103 99 -331 191 -520 14 -29 25 -55 25 -58 0 -9
175 -362 251 -505 95 -180 125 -235 210 -381 114 -196 117 -202 212 -347 37
-58 67 -109 67 -113 0 -5 3 -9 8 -9 4 0 20 -21 37 -48 16 -26 32 -49 35 -52 3
-3 38 -48 78 -100 65 -86 202 -257 256 -320 12 -14 25 -33 29 -43 3 -9 11 -17
17 -17 5 0 10 -4 10 -10 0 -5 19 -36 43 -67 137 -183 212 -373 223 -568 7
-110 18 -148 47 -164 25 -13 137 -31 137 -22 0 3 42 5 92 4 51 -1 104 -3 118
-3 14 0 45 0 70 -1 25 -1 52 -1 60 0 49 3 123 0 131 -5 5 -3 9 -2 9 3 0 4 42
7 92 6 51 -1 104 -3 118 -3 14 0 45 0 70 -1 25 -1 52 -1 60 0 49 3 123 0 131
-5 5 -3 9 -2 9 3 0 4 42 7 92 6 51 -1 104 -3 118 -3 14 0 45 0 70 -1 25 -1 52
-1 60 0 49 3 123 0 131 -5 5 -3 9 -2 9 3 0 4 44 7 97 5 54 -1 127 -2 163 -1
36 0 76 0 90 -1 14 -1 32 -1 40 -1 8 1 33 1 55 0 22 -1 47 -1 55 0 49 3 123 0
131 -5 5 -3 9 -2 9 3 0 4 42 7 92 6 129 -3 141 -3 158 -2 14 1 88 0 158 -1 41
-1 93 23 111 51 8 14 14 65 16 148 3 126 13 274 20 321 2 14 7 50 10 80 4 30
8 64 10 75 2 11 6 39 9 62 3 23 10 63 16 88 6 25 12 60 15 78 2 17 7 43 10 57
3 14 8 36 11 50 3 14 10 45 15 70 6 25 12 52 14 60 1 8 8 35 15 60 7 25 15 59
17 75 3 17 9 38 14 47 5 10 7 18 5 18 -3 0 -1 11 4 25 5 14 12 36 14 48 2 13
22 97 44 187 36 145 71 302 86 380 3 14 10 50 16 80 6 30 13 69 15 85 3 17 9
59 14 95 24 155 25 162 37 300 13 150 16 1032 4 1095 -14 73 -44 145 -83 204
-37 54 -123 139 -151 147 -12 4 -23 11 -27 15 -3 5 -39 21 -80 35 -90 32 -226
41 -307 20 -29 -8 -52 -11 -52 -8 0 3 -5 1 -12 -6 -7 -7 -31 -12 -54 -12 -53
0 -76 23 -111 110 -26 65 -75 147 -111 186 -61 65 -174 135 -244 150 -13 3
-34 7 -48 10 -85 19 -234 4 -297 -29 -18 -9 -47 -24 -64 -33 -19 -10 -42 -14
-62 -10 -31 6 -67 32 -67 47 0 20 -98 120 -155 158 -133 89 -295 111 -449 63
-67 -22 -80 -20 -122 13 l-29 23 -1 484 c-1 265 -4 510 -8 543 -8 60 -52 187
-68 193 -4 2 -8 10 -8 18 0 8 -30 45 -67 83 -99 99 -200 145 -352 157 -30 3
-58 7 -61 9 -4 3 -9 2 -12 0z"/>
</g>
</svg>
